<svg width="435" height="53" viewBox="0 0 435 53" fill="none" xmlns="http://www.w3.org/2000/svg">
<path d="M44.216 14.056H28.736V52H16.352V14.056H0.8V4.48H44.216V14.056ZM55.637 11.824C53.141 11.824 51.317 11.368 50.165 10.456C49.061 9.496 48.509 8.008 48.509 5.992C48.509 3.928 49.061 2.44 50.165 1.528C51.317 0.567998 53.141 0.0879989 55.637 0.0879989C58.133 0.0879989 59.933 0.567998 61.037 1.528C62.189 2.44 62.765 3.928 62.765 5.992C62.765 8.008 62.189 9.496 61.037 10.456C59.933 11.368 58.133 11.824 55.637 11.824ZM61.757 52H49.517V16H61.757V52ZM87.7501 15.28C93.7501 15.28 98.4061 16.936 101.718 20.248C105.078 23.512 106.758 28.096 106.758 34C106.758 39.904 105.078 44.512 101.718 47.824C98.4061 51.088 93.7501 52.72 87.7501 52.72C81.7501 52.72 77.0701 51.088 73.7101 47.824C70.3981 44.512 68.7421 39.904 68.7421 34C68.7421 28.096 70.3981 23.512 73.7101 20.248C77.0701 16.936 81.7501 15.28 87.7501 15.28ZM87.7501 23.992C85.4461 23.992 83.7421 24.784 82.6381 26.368C81.5341 27.952 80.9821 30.496 80.9821 34C80.9821 37.504 81.5341 40.048 82.6381 41.632C83.7421 43.216 85.4461 44.008 87.7501 44.008C90.0541 44.008 91.7581 43.216 92.8621 41.632C93.9661 40.048 94.5181 37.504 94.5181 34C94.5181 30.496 93.9661 27.952 92.8621 26.368C91.7581 24.784 90.0541 23.992 87.7501 23.992ZM190.256 52H179.312V30.184L179.672 15.568H179.528L167.792 52H157.784L146.048 15.568H145.904L146.264 30.184V52H135.248V4.48H152.888L160.376 28.672L163.04 38.752H163.184L165.92 28.744L173.336 4.48H190.256V52ZM234.551 45.016C235.463 45.016 236.207 44.92 236.783 44.728L235.847 51.568C234.455 52.336 232.823 52.72 230.951 52.72C225.767 52.72 222.671 50.872 221.663 47.176C219.503 50.872 215.231 52.72 208.847 52.72C205.247 52.72 202.487 51.952 200.567 50.416C198.647 48.88 197.687 46.648 197.687 43.72C197.687 40.648 198.767 38.176 200.927 36.304C203.135 34.384 206.735 32.92 211.727 31.912L219.863 30.328V29.032C219.863 27.4 219.407 26.104 218.495 25.144C217.583 24.184 216.335 23.704 214.751 23.704C212.927 23.704 211.439 24.136 210.287 25C209.135 25.864 208.391 27.28 208.055 29.248L198.119 26.368C198.743 22.864 200.471 20.152 203.303 18.232C206.135 16.264 209.951 15.28 214.751 15.28C220.367 15.28 224.639 16.432 227.567 18.736C230.495 21.04 231.959 24.496 231.959 29.104V42.208C231.959 44.08 232.823 45.016 234.551 45.016ZM213.311 44.8C214.991 44.8 216.503 44.344 217.847 43.432C219.191 42.472 219.863 41.224 219.863 39.688V36.592L214.031 37.96C212.495 38.344 211.391 38.824 210.719 39.4C210.095 39.928 209.783 40.696 209.783 41.704C209.783 42.712 210.095 43.48 210.719 44.008C211.343 44.536 212.207 44.8 213.311 44.8ZM258.538 15.28C263.962 15.28 268.042 16.312 270.778 18.376C273.514 20.44 275.218 23.128 275.89 26.44L264.514 30.184C264.034 26.056 262.186 23.992 258.97 23.992C254.218 23.992 251.842 27.376 251.842 34.144C251.842 40.72 254.218 44.008 258.97 44.008C262.378 44.008 264.37 42.064 264.946 38.176L275.962 41.704C275.434 44.968 273.682 47.632 270.706 49.696C267.778 51.712 263.89 52.72 259.042 52.72C252.802 52.72 248.002 51.088 244.642 47.824C241.282 44.56 239.602 39.952 239.602 34C239.602 28.096 241.258 23.512 244.57 20.248C247.93 16.936 252.586 15.28 258.538 15.28ZM317.238 45.016C318.15 45.016 318.894 44.92 319.47 44.728L318.534 51.568C317.142 52.336 315.51 52.72 313.638 52.72C308.454 52.72 305.358 50.872 304.35 47.176C302.19 50.872 297.918 52.72 291.534 52.72C287.934 52.72 285.174 51.952 283.254 50.416C281.334 48.88 280.374 46.648 280.374 43.72C280.374 40.648 281.454 38.176 283.614 36.304C285.822 34.384 289.422 32.92 294.414 31.912L302.55 30.328V29.032C302.55 27.4 302.094 26.104 301.182 25.144C300.27 24.184 299.022 23.704 297.438 23.704C295.614 23.704 294.126 24.136 292.974 25C291.822 25.864 291.078 27.28 290.742 29.248L280.806 26.368C281.43 22.864 283.158 20.152 285.99 18.232C288.822 16.264 292.638 15.28 297.438 15.28C303.054 15.28 307.326 16.432 310.254 18.736C313.182 21.04 314.646 24.496 314.646 29.104V42.208C314.646 44.08 315.51 45.016 317.238 45.016ZM295.998 44.8C297.678 44.8 299.19 44.344 300.534 43.432C301.878 42.472 302.55 41.224 302.55 39.688V36.592L296.718 37.96C295.182 38.344 294.078 38.824 293.406 39.4C292.782 39.928 292.47 40.696 292.47 41.704C292.47 42.712 292.782 43.48 293.406 44.008C294.03 44.536 294.894 44.8 295.998 44.8ZM346.546 15.28C348.178 15.28 349.474 15.544 350.434 16.072L349.138 26.44C348.658 26.152 348.01 25.912 347.194 25.72C346.378 25.48 345.514 25.36 344.602 25.36C342.298 25.36 340.378 26.104 338.842 27.592C337.306 29.032 336.538 31.12 336.538 33.856V52H324.298V16H335.098L335.602 23.776C336.466 21.04 337.81 18.952 339.634 17.512C341.506 16.024 343.81 15.28 346.546 15.28ZM361.356 11.824C358.86 11.824 357.036 11.368 355.884 10.456C354.78 9.496 354.228 8.008 354.228 5.992C354.228 3.928 354.78 2.44 355.884 1.528C357.036 0.567998 358.86 0.0879989 361.356 0.0879989C363.852 0.0879989 365.652 0.567998 366.756 1.528C367.908 2.44 368.484 3.928 368.484 5.992C368.484 8.008 367.908 9.496 366.756 10.456C365.652 11.368 363.852 11.824 361.356 11.824ZM367.476 52H355.236V16H367.476V52ZM399.805 15.28C403.597 15.28 406.621 16.384 408.877 18.592C411.133 20.8 412.261 23.944 412.261 28.024V52H400.021V31.408C400.021 28.96 399.565 27.232 398.653 26.224C397.789 25.168 396.541 24.64 394.909 24.64C392.989 24.64 391.429 25.336 390.229 26.728C389.029 28.072 388.429 30.16 388.429 32.992V52H376.189V16H387.133L387.493 22.912C388.645 20.368 390.277 18.472 392.389 17.224C394.501 15.928 396.973 15.28 399.805 15.28ZM426.957 11.824C424.461 11.824 422.637 11.368 421.485 10.456C420.381 9.496 419.829 8.008 419.829 5.992C419.829 3.928 420.381 2.44 421.485 1.528C422.637 0.567998 424.461 0.0879989 426.957 0.0879989C429.453 0.0879989 431.253 0.567998 432.357 1.528C433.509 2.44 434.085 3.928 434.085 5.992C434.085 8.008 433.509 9.496 432.357 10.456C431.253 11.368 429.453 11.824 426.957 11.824ZM433.077 52H420.837V16H433.077V52Z" fill="#2F2F2F"/>
</svg>
