<svg width="261" height="276" viewBox="0 0 261 276" fill="none" xmlns="http://www.w3.org/2000/svg">
<rect x="161" y="258.204" width="2.6813" height="62.0834" transform="rotate(-89.8125 161 258.204)" fill="#C4C4C4"/>
<rect x="143" y="216.723" width="4.3702" height="38.0937" transform="rotate(-20.1554 143 216.723)" fill="#C4C4C4"/>
<ellipse cx="222" cy="257.5" rx="8" ry="7.5" fill="#545454"/>
<ellipse rx="4" ry="3.75" transform="matrix(0.999998 -0.00189176 0.0021524 0.999998 222.008 257.508)" fill="black"/>
<path d="M204.368 268.696C203.161 269.345 201.657 268.845 201.079 267.603C200.508 266.378 201.07 264.924 202.316 264.4L221.01 256.548C221.73 256.246 222.558 256.585 222.858 257.306C223.136 257.975 222.862 258.746 222.224 259.089L204.368 268.696Z" fill="#C4C4C4"/>
<rect x="111" y="218.723" width="5" height="51.7817" transform="rotate(-20.1554 111 218.723)" fill="#C4C4C4"/>
<circle cx="162.5" cy="257.5" r="8.5" fill="#545454"/>
<circle cx="162.509" cy="257.509" r="4.25" transform="rotate(-0.115616 162.509 257.509)" fill="black"/>
<rect x="133" y="263" width="3.10675" height="67.4563" transform="rotate(-89.8125 133 263)" fill="#C4C4C4"/>
<circle cx="205" cy="266" r="10" fill="#545454"/>
<circle cx="205.01" cy="266.01" r="5" transform="rotate(-0.115616 205.01 266.01)" fill="black"/>
<circle cx="129" cy="266" r="10" fill="#545454"/>
<circle cx="129.01" cy="266.01" r="5" transform="rotate(-0.115616 129.01 266.01)" fill="black"/>
<rect x="73.6101" y="117.793" width="3.45728" height="57.919" transform="rotate(-33.5277 73.6101 117.793)" fill="#C4C4C4"/>
<rect x="108" y="111.91" width="3.45728" height="51.7817" transform="rotate(-33.5277 108 111.91)" fill="#C4C4C4"/>
<rect x="72.5645" y="118.865" width="3.45728" height="40.7402" rx="1.72864" transform="rotate(-99.3968 72.5645 118.865)" fill="#C4C4C4"/>
<path d="M129 142H260.5L220 159L95.5 149.5L129 142Z" fill="#2F2F2F"/>
<path d="M95 149H228L216.523 224H106.14L95 149Z" fill="#737373"/>
<path d="M216.5 224L240.5 219L260 142.5L227.5 149L216.5 224Z" fill="#545454"/>
<rect width="5.27086" height="53.3822" rx="2.63543" transform="matrix(0.920966 -0.389644 0.350065 0.936725 149 164.054)" fill="white"/>
<rect width="5.27086" height="53.3822" rx="2.63543" transform="matrix(0.920966 -0.389644 0.350065 0.936725 179 165.054)" fill="white"/>
<rect width="5.27086" height="53.3822" rx="2.63543" transform="matrix(0.920966 -0.389644 0.350065 0.936725 119 164.054)" fill="white"/>
<path d="M71 197L57.3545 271.289H47.2784L56 197H71Z" fill="#BC8567"/>
<path d="M46.1847 266.34C46.1847 266.34 41.8078 273.416 45.0905 274.676C48.3731 275.936 69.9842 276.046 75.3186 275.252C80.6529 274.448 63.4188 267.134 59.4796 265.984C55.5404 264.833 54.2638 270.832 46.1847 266.34Z" fill="#3D3D3D"/>
<path d="M38 197.5L27.8832 271.289H17.8071L21 197.5H38Z" fill="#BC8567"/>
<path d="M16.7135 266.34C16.7135 266.34 12.3366 273.416 15.6193 274.676C18.902 275.936 40.513 276.046 45.8473 275.252C51.1817 274.448 33.9476 267.134 30.0084 265.984C26.0692 264.833 24.7926 270.832 16.7135 266.34Z" fill="#3D3D3D"/>
<path d="M14.4065 133.209L19.5 198H39.5L42.4461 166.701L53.5 198H74.5C73.8799 188.641 59.4796 129.365 59.4796 129.365L14.4065 133.209Z" fill="#545454"/>
<path d="M45.3104 173.564L42.9452 166.642L44.0478 155.441L45.3104 173.564Z" fill="black" stroke="black"/>
<path d="M72.4096 75.3908C72.4096 75.3908 82.741 94.9586 82.969 100.967C83.1969 106.975 76.586 105.633 73.1665 100.218C69.747 94.7943 64.2759 79.4176 64.2759 79.4176L72.4096 75.3908Z" fill="#BC8567"/>
<path d="M78.2192 95.9991C83.0905 95.9383 101.822 97.2776 102.693 96.2764C104.332 94.3972 106.25 93.333 112.207 95.3391C112.207 95.3391 112.163 96.2602 110.983 96.5052C109.706 96.7732 108.917 96.6333 108.917 96.6333C108.917 96.6333 109.955 97.9725 112.853 97.9347C115.751 97.897 117.374 97.2663 118.02 98.1188C118.02 98.1188 119.531 97.9929 119.917 98.4307C119.917 98.4307 120.203 98.7484 119.92 99.0316C120.774 99.4447 119.307 101.308 116.861 101.996C113.343 102.977 108.706 102.396 106.233 101.692C104.382 101.165 85.737 107.278 78.1492 104.155C75.9776 103.243 75.9521 96.0252 78.2192 95.9991Z" fill="#BC8567"/>
<path d="M74.3428 77.0252C74.3428 77.0252 71.3793 82.303 64.2759 85.5262C62.8078 86.1928 61.5677 84.4305 60.6467 82.3395C59.5798 79.9015 58.9598 77.0252 58.9598 77.0252C58.9598 77.0252 50.8169 51.7961 57.9932 52.7001C57.9932 52.7001 64.1026 53.1292 68.589 61.9864C69.7653 64.2965 71.5981 68.9534 73.13 73.3728C73.5677 74.6329 73.978 75.8656 74.3428 77.0252Z" fill="#8B0000"/>
<path d="M60.0157 140.616C55.5183 146.366 25.9078 145.517 14.7324 143.378C12.7699 143 10.8346 142.151 13.9328 134.457C15.0958 131.582 19.1999 124.17 19 114C18.6093 93.8956 8.70852 60.5564 15.2412 56.7299C19.1571 54.4279 27.4706 51.3994 33.5126 49.3327C33.876 49.2202 34.2304 49.0974 34.5756 48.9746C38.1009 47.7878 40.6177 47 40.6177 47C40.6177 47 43.5342 47.4809 49.4672 49.4555C49.7852 49.5578 50.1304 49.6806 50.4757 49.7931C52.0203 50.3252 53.7375 50.939 55.6546 51.6757C59.3707 53.0978 62.0964 53.9675 62.7596 55.3589C64.5314 59.0115 63.8499 65.4879 63.959 74.8188C64.1043 86.5335 63.9953 135.541 60.0157 140.616Z" fill="#AA1313"/>
<path d="M20.8351 122.708C20.8351 122.708 44.5434 118.9 57.3094 111.294C57.3094 111.294 43.0297 125.602 20.8351 122.708Z" fill="#8B0000"/>
<path d="M50.2698 49.696C50.133 51.9057 49.1391 53.8506 47.6437 55.275C46.1117 56.736 44.0418 57.6217 41.7895 57.6217C37.1299 57.6217 33.3549 53.8871 33.2637 49.2668C33.6284 49.1664 33.984 49.0568 34.3305 48.9472C37.8686 47.888 40.3944 47.1849 40.3944 47.1849C40.3944 47.1849 43.3215 47.6141 49.2759 49.3764C49.5859 49.4951 49.9233 49.5955 50.2698 49.696Z" fill="#8B0000"/>
<path d="M49.2486 31.0777L48.5191 45.2491L48.3094 49.2942C48.2273 51.0108 47.4705 52.5448 46.3033 53.6497C45.1452 54.7546 43.5769 55.4211 41.8626 55.4211C38.2334 55.4211 35.3154 52.4261 35.4066 48.8011L35.589 41.5876L35.899 29.5985L49.2486 31.0777Z" fill="#BC8567"/>
<path d="M49.2486 33.8992L48.5191 47.2488C42.2546 47.5045 37.6771 44.9478 35.5798 41.5511L35.8899 32.42L49.2486 33.8992Z" fill="#765441"/>
<path d="M53.9913 4.5644C53.9913 4.5644 50.2488 1.09263 44.5859 0.266642C36.3025 -0.941538 25.3964 1.67454 23.2239 13.9493C21.5058 21.0229 30.3898 32.6486 33.7453 31.9717C33.7453 31.9717 63.95 13.4121 53.9913 4.5644Z" fill="#43302D"/>
<path d="M56.8034 15.3745C56.8034 15.3745 57.3852 20.9108 56.5752 27.0271C55.6397 34.1062 55.9705 42.4216 45.087 42.9796C33.4732 43.5705 29.6286 31.1082 29.6286 31.1082C29.6286 31.1082 23.4567 30.0031 23.0346 26.0095C22.6124 22.0159 26.9248 21.7862 28.328 22.9022C28.328 22.9022 29.9252 8 44.277 8C56.9745 8.01094 56.8034 15.3745 56.8034 15.3745Z" fill="#BC8567"/>
<path d="M28.4798 13.9858C28.4798 13.9858 35.4617 18.325 33.3613 21.4713C31.0263 24.9701 31.65 28.7092 31.65 28.7092C31.65 28.7092 31.3193 27.4266 29.2083 25.5478C27.0973 23.6689 21.507 16.4042 28.4798 13.9858Z" fill="#43302D"/>
<path d="M35.6344 112.298C42.6077 113.195 72 114 73 115.5C75.5 114.5 78.5 115 78.5 115C78.5 115 81.5 115.466 82.2423 115.562C86.3921 116.098 89.4819 117.2 89.3269 116.187C89.3269 116.187 91.6248 116.606 91.6211 116.095C91.6211 116.095 91.6278 115.725 90.8723 115.305C91.5632 114.905 83.8259 110.825 79.5 109.51C73.2893 107.63 70.7756 108.999 68.1562 109.51C66.1969 109.893 36.4525 99.5883 29.6267 102.423C27.6965 103.258 32.3918 111.883 35.6344 112.298Z" fill="#BC8567"/>
<path d="M19.1403 83.995C19.1403 83.995 26.5805 104.834 30.8548 109.063C35.1291 113.292 38.6077 107.512 36.9278 101.332C35.2411 95.1461 27.6053 80.7215 27.6053 80.7215L19.1403 83.995Z" fill="#BC8567"/>
<path d="M28.9781 74.5903C28.9781 74.5903 29.7853 76.2664 30.4547 78.132C31.1861 80.1969 31.7381 82.4868 30.8161 83.0218C30.8161 83.0218 17.0404 88.8499 16.4525 87.4309C16.0176 86.3735 15.5634 84.9004 15.1194 83.2145C13.7264 77.9448 12.4153 70.6362 11.9541 67.7645C10.3724 57.9618 12.681 57.4078 12.681 57.4078C17.9556 52.4493 28.9781 74.5903 28.9781 74.5903Z" fill="#8B0000"/>
</svg>
